<?xml version="1.0" encoding="UTF-8"?>
<svg xmlns="http://www.w3.org/2000/svg" viewBox="0 0 512 512" width="512" height="512"><g id="outline"><path d="M475.2,129.6a104.992,104.992,0,0,0-49-35.828A87.969,87.969,0,0,0,325.128,42.309a103.973,103.973,0,0,0-138.256,0A87.988,87.988,0,0,0,85.785,93.77,104.968,104.968,0,0,0,36.794,129.6,104.016,104.016,0,0,0,161.379,287.428,315.218,315.218,0,0,1,184,404.956V474a22.025,22.025,0,0,0,22,22H306a22.025,22.025,0,0,0,22-22V404.956a315.238,315.238,0,0,1,22.621-117.528A104.007,104.007,0,0,0,475.2,129.6ZM312,404.956V474a6.006,6.006,0,0,1-6,6H206a6.006,6.006,0,0,1-6-6V404.956A331.177,331.177,0,0,0,175.6,279.91a103.906,103.906,0,0,0,16.016-12.5l17,39.672,10.013,25.033A74.75,74.75,0,0,1,224,360a8,8,0,0,0,16,0,90.644,90.644,0,0,0-6.515-33.826l-9.152-22.882,10.873-50.741a64.408,64.408,0,0,0,41.588,0l10.873,50.741-9.152,22.881A90.653,90.653,0,0,0,272,360a8,8,0,0,0,16,0,74.759,74.759,0,0,1,5.37-27.885l10.013-25.032,17-39.672a103.906,103.906,0,0,0,16.016,12.5A331.177,331.177,0,0,0,312,404.956ZM220.178,246.324l-6.731,31.409-10.092-23.547q.849-1.136,1.671-2.3a103.216,103.216,0,0,0,15.209-5.779C220.217,246.184,220.193,246.252,220.178,246.324Zm86.8,5.567q.819,1.162,1.671,2.3l-10.092,23.547-6.731-31.409c-.015-.072-.039-.14-.056-.212A103.049,103.049,0,0,0,306.974,251.891ZM392,280a87.875,87.875,0,0,1-73.41-39.465c-.015-.022-.032-.042-.047-.063a86.961,86.961,0,0,1-13.326-33.8,8,8,0,1,0-15.779,2.648,103.2,103.2,0,0,0,5.684,20.594c-.375-.2-.753-.388-1.126-.591a8,8,0,0,0-8.713.692,47.947,47.947,0,0,1-58.566,0,8,8,0,0,0-8.713-.692c-.373.2-.751.394-1.126.591a103.2,103.2,0,0,0,5.684-20.594,8,8,0,1,0-15.779-2.648,86.977,86.977,0,0,1-13.326,33.8c-.015.021-.032.041-.047.063A88,88,0,1,1,49.587,139.212a88.958,88.958,0,0,1,30.965-25.857,19.838,19.838,0,0,0-1.249,5.854,8,8,0,0,0,7.17,8.752c.269.026.536.04.8.04a8,8,0,0,0,7.952-7.21,71.538,71.538,0,0,1,4.212-18.055c.259-.691.96-2.425,1.037-2.609a71.992,71.992,0,0,1,86.412-41.284c.546.158,2.192.644,2.6.78a72.286,72.286,0,0,1,28.8,17.978,8,8,0,1,0,11.426-11.2,88.575,88.575,0,0,0-25.049-17.876,88.01,88.01,0,0,1,102.672,0A88.575,88.575,0,0,0,282.287,66.4a8,8,0,0,0,11.426,11.2,72.286,72.286,0,0,1,28.8-17.978c.41-.136,2.056-.622,2.6-.78a71.982,71.982,0,0,1,87.534,44.146c.216.581.912,2.528,1.188,3.408a71.735,71.735,0,0,1,2.939,14.393A8,8,0,0,0,424.727,128c.264,0,.531-.014.8-.04a8,8,0,0,0,7.171-8.751,50.664,50.664,0,0,0-.866-5.647,88.978,88.978,0,0,1,30.578,25.651A87.2,87.2,0,0,1,480,192,88.1,88.1,0,0,1,392,280Z"/><circle cx="113" cy="177" r="9"/><circle cx="415" cy="231" r="9"/><circle cx="279" cy="145" r="9"/><circle cx="385" cy="119" r="9"/><circle cx="129" cy="215" r="9"/><circle cx="343" cy="113" r="9"/><circle cx="175" cy="89" r="9"/><circle cx="98" cy="206" r="10"/><circle cx="198" cy="118" r="10"/><circle cx="358" cy="150" r="10"/><circle cx="250" cy="174" r="10"/><circle cx="430" cy="206" r="10"/><path d="M280,384a8,8,0,0,0-8,8v16a8,8,0,0,0,16,0V392A8,8,0,0,0,280,384Z"/></g></svg>
