<?xml version="1.0" encoding="iso-8859-1"?>
<!-- Generator: Adobe Illustrator 19.0.0, SVG Export Plug-In . SVG Version: 6.00 Build 0)  -->
<svg version="1.1" id="Capa_1" xmlns="http://www.w3.org/2000/svg" xmlns:xlink="http://www.w3.org/1999/xlink" x="0px" y="0px"
	 viewBox="0 0 512 512" style="enable-background:new 0 0 512 512;" xml:space="preserve">
<g>
	<g>
		<g>
			<path d="M407.107,220.183c-61.771-61.771-148.428-75.942-195.824-33.076l-50.47-39.25l13.823-13.824
				c0.4-0.474,0.745-0.993,1.027-1.546c5.389,2.621,11.31,3.966,17.302,3.929c13.729,0,32.271-6.592,55.475-29.225
				c23.051-25.421,38.922-56.518,45.983-90.1c0.413-4.593-1.239-9.131-4.508-12.383c-3.329-3.349-7.97-5.052-12.675-4.65h-0.012
				c-18.987,1.683-54.592,8.166-79.688,32.642c-24.417,23.816-39.583,51.333-39.583,71.816c-0.149,6.119,1.541,12.143,4.853,17.291
				c-0.073,0.068-0.169,0.089-0.24,0.159l-15.332,15.332l-9.643-7.499c-2.405-1.877-5.63-2.327-8.457-1.18
				c-2.827,1.147-4.826,3.717-5.243,6.74s0.813,6.037,3.225,7.907l72.565,56.433c-15.486,21.772-22.235,48.565-18.91,75.075
				l0.029,0.32c-76.817,9.909-133.779,59.244-133.779,117.439C47.024,458.408,119.757,512,209.157,512
				c61.199,0,117.148-25.536,144.517-65.366c3.858,0.331,7.682,0.558,11.429,0.558c26.846,0.79,52.878-9.267,72.221-27.9
				C483.837,372.683,470.282,283.366,407.107,220.183z M209.457,44.916C230.77,24.133,262.87,18.641,277.216,17.2
				c-6.995,28.864-20.968,55.57-40.692,77.775c-18.794,18.323-36.077,26.494-48.69,23.748l18.823-18.824
				c3.281-3.341,3.256-8.701-0.054-12.012c-3.311-3.311-8.671-3.335-12.012-0.054l-19.215,19.215
				c-0.18-0.834-0.298-1.68-0.352-2.532C175.024,91.566,185.67,68.116,209.457,44.916z M342.182,433.191
				c-23.129,37.508-75.346,61.742-133.025,61.742c-79.991,0-145.067-45.933-145.067-102.4c0-51.433,54.471-95.067,126.879-101.508
				c6.042-0.629,12.113-0.927,18.188-0.892c79.992,0,145.067,45.933,145.067,102.4C354.151,406.954,349.974,421.056,342.182,433.191
				z M425.249,407.233c-16.696,15.786-39.139,24.028-62.084,22.801c5.349-11.779,8.12-24.565,8.126-37.501
				c0-65.875-72.733-119.467-162.133-119.467c-4.045,0-7.795,0.118-11.371,0.313l-0.016-0.179
				c-3.687-25.863,4.5-52.008,22.279-71.15c39.954-39.875,118.454-26.325,174.992,30.2
				C451.57,288.783,465.116,367.283,425.249,407.233z"/>
			<path d="M417.578,324.258c2.711,0,5.261-1.288,6.87-3.47c1.609-2.182,2.086-4.999,1.284-7.589
				c-8.56-26.042-23.226-49.658-42.775-68.875c-3.34-3.312-8.729-3.297-12.052,0.032s-3.325,8.719-0.007,12.051
				c17.59,17.248,30.802,38.451,38.533,61.842C410.539,321.82,413.84,324.255,417.578,324.258z"/>
			<path d="M428.829,344.041c-1.543-1.655-3.681-2.629-5.943-2.708c-2.269-0.108-4.485,0.704-6.147,2.253s-2.629,3.702-2.682,5.973
				c-0.147,5.076-0.92,10.113-2.3,15c-0.879,2.938-0.114,6.121,2.004,8.338c2.117,2.218,5.262,3.129,8.237,2.387
				c2.975-0.742,5.323-3.023,6.151-5.975c1.772-6.237,2.768-12.669,2.967-19.15C431.195,347.896,430.373,345.696,428.829,344.041z"
				/>
			<path d="M310.391,351.708c-3.687,2.936-4.295,8.305-1.358,11.992c1.885,2.35,3.583,4.843,5.079,7.458
				c2.333,4.096,7.545,5.525,11.642,3.192s5.525-7.546,3.192-11.642c-1.937-3.377-4.131-6.601-6.563-9.641
				C319.446,349.38,314.077,348.772,310.391,351.708z"/>
			<path d="M280.974,322.191c-22.596-10.05-47.078-15.161-71.808-14.992c-4.713,0-8.533,3.82-8.533,8.533s3.82,8.533,8.533,8.533
				c22.28-0.172,44.34,4.411,64.708,13.442c2.774,1.283,6.022,0.984,8.516-0.784c2.493-1.768,3.85-4.734,3.558-7.776
				S283.758,323.452,280.974,322.191z"/>
			<path d="M123.832,341.333c-23.525,0-42.667,22.967-42.667,51.2c0,28.233,19.142,51.2,42.667,51.2
				c23.525,0,42.667-22.967,42.667-51.2C166.499,364.3,147.357,341.333,123.832,341.333z M123.832,426.666
				c-14.117,0-25.6-15.308-25.6-34.133c0-18.825,11.483-34.133,25.6-34.133s25.6,15.308,25.6,34.133
				C149.432,411.358,137.949,426.666,123.832,426.666z"/>
		</g>
	</g>
</g>
<g>
</g>
<g>
</g>
<g>
</g>
<g>
</g>
<g>
</g>
<g>
</g>
<g>
</g>
<g>
</g>
<g>
</g>
<g>
</g>
<g>
</g>
<g>
</g>
<g>
</g>
<g>
</g>
<g>
</g>
</svg>
