<svg id="Capa_1" enable-background="new 0 0 519.336 519.336" height="512" viewBox="0 0 519.336 519.336" width="512" xmlns="http://www.w3.org/2000/svg"><path d="m327.079 283.239h-23.88v-17.633l21.811-25.893c12.499-14.837 20.613-32.824 23.465-52.015 1.31-8.816 5.973-16.598 13.131-21.91l40.363-29.956c20.908-15.516 32.2-40.292 30.206-66.273-.317-4.131-3.943-7.23-8.052-6.904-4.13.317-7.221 3.922-6.904 8.052 1.597 20.812-7.446 40.655-24.189 53.081l-40.363 29.956c-10.373 7.698-17.13 18.974-19.028 31.75-2.443 16.438-9.393 31.846-20.1 44.555l-10.339 12.274v-10.42c0-33.418 6.469-66.024 19.226-96.911 12.758-30.887 31.184-58.554 54.767-82.232 2.923-2.935 2.914-7.684-.021-10.606-2.934-2.922-7.683-2.914-10.606.021-24.976 25.077-44.491 54.378-58.002 87.09s-20.362 67.245-20.362 102.638v.599c-7.557-19.345-9.51-40.539-5.446-61.161l1.248-6.333c.029-.146.053-.292.073-.44l13.223-97.345c2.719-20.007 15.175-37.238 33.32-46.093 18.145-8.854 39.392-8.072 56.836 2.097 8.753 5.102 15.824 11.97 21.018 20.414 2.169 3.527 6.79 4.629 10.318 2.458 3.528-2.17 4.629-6.79 2.458-10.318-6.502-10.57-15.331-19.154-26.241-25.514-21.779-12.696-48.31-13.675-70.967-2.617-22.657 11.057-38.21 32.572-41.604 57.554l-13.197 97.124-.247 1.253c-8.321-15.83-20.434-29.293-35.446-39.263-3.299-2.191-6.071-5.173-8.015-8.624l-21.948-38.964c-9.973-17.705-27.277-29.138-47.475-31.366-20.203-2.233-39.578 5.156-53.171 20.26-12.21 13.567-17.848 31.727-15.469 49.823s12.519 34.182 27.82 44.132l31.366 20.397c8.748 5.688 15.729 13.682 20.189 23.116l3.76 7.954c.683 1.445 1.434 2.947 2.362 4.729 1.337 2.566 3.951 4.035 6.657 4.035 1.167 0 2.353-.273 3.46-.851 3.673-1.915 5.099-6.444 3.185-10.117-.837-1.606-1.505-2.943-2.103-4.208l-3.76-7.954c-5.649-11.95-14.493-22.075-25.573-29.28l-31.366-20.397c-11.62-7.556-19.32-19.771-21.126-33.513-1.807-13.742 2.475-27.531 11.747-37.833 10.322-11.47 25.037-17.078 40.375-15.385 15.337 1.692 28.478 10.374 36.051 23.818l21.948 38.964c3.101 5.505 7.522 10.262 12.786 13.758 15.092 10.022 26.792 24.143 33.835 40.836l6.599 15.642c.122 21.738 5.922 43.206 17.044 62.241l5.471 9.364v18.341h-9.238l-.157-.598c-20.06-76.178-66.796-142.796-131.601-187.584-3.407-2.354-8.079-1.501-10.434 1.906-2.355 3.408-1.502 8.079 1.906 10.434 60.943 42.119 105.129 104.472 124.736 175.842h-2.149c-.197-.204-.39-.411-.614-.597l-44.259-36.568c-4.309-3.56-8.417-7.47-12.209-11.62-2.794-3.057-7.538-3.271-10.596-.478-3.058 2.794-3.271 7.538-.478 10.596 4.263 4.666 8.881 9.061 13.728 13.065l30.986 25.601h-17.293c-37.855 0-69.659 23.332-81.024 59.441s1.343 73.451 32.374 95.132l64.395 44.993 16.907 25.469c4.599 6.928 12.308 11.063 20.624 11.063s16.025-4.136 20.624-11.063l16.907-25.469 50.866-35.54c3.396-2.372 4.225-7.048 1.853-10.443-2.372-3.396-7.05-4.225-10.443-1.853l-52.032 36.354c-.771.539-1.433 1.217-1.953 2l-17.694 26.654c-1.839 2.771-4.801 4.359-8.126 4.359-3.326 0-6.288-1.589-8.126-4.359l-17.694-26.654c-.52-.783-1.183-1.461-1.953-2l-46.028-32.159h61.092c4.142 0 7.5-3.358 7.5-7.5s-3.358-7.5-7.5-7.5h-82.484c-12.249-9.106-20.941-21.166-25.185-35.02-4.036-13.173-3.996-27.302.083-40.934h41.41c4.142 0 7.5-3.358 7.5-7.5s-3.358-7.5-7.5-7.5h-35.06c4.509-8.014 10.473-15.017 17.669-20.645 11.985-9.372 26.854-14.326 43-14.326h106.552c28.865 0 52.841 15.702 64.137 42.001 2.757 6.419 4.527 13.057 5.353 19.715h-112.405c-4.142 0-7.5 3.358-7.5 7.5s3.358 7.5 7.5 7.5h112.671c-1.343 15.092-7.55 29.48-18.223 40.723-2.852 3.004-2.729 7.751.275 10.603s7.751 2.729 10.603-.275c22.958-24.182 29.046-60.17 15.51-91.685-13.534-31.505-43.391-51.078-77.921-51.078z"/></svg>